[h264 @ 0x55d95a912b40] Reinit context to 1280x720, pix_fmt: yuv420p
Input #0, mov,mp4,m4a,3gp,3g2,mj2, from '/var/www/html/project/media/video/original/Il_mio_filmato_7.mov':
  Metadata:
    major_brand     : qt  
    minor_version   : 0
    compatible_brands: qt  
    creation_time   : 2025-05-30T21:37:43.000000Z
    com.apple.quicktime.artwork: ˙Ř˙ŕ
    com.apple.quicktime.is-montage: iMovie
  Duration: 00:00:37.03, start: 0.000000, bitrate: 10805 kb/s
    Stream #0:0(und): Video: h264 (Main), 1 reference frame (avc1 / 0x31637661), yuv420p(tv, bt709, left), 1280x720, 10533 kb/s, 30 fps, 30 tbr, 600 tbn, 1200 tbc (default)
    Metadata:
      creation_time   : 2025-05-30T21:37:43.000000Z
      handler_name    : Core Media Video
      encoder         : H.264
    Stream #0:1(und): Audio: aac (LC) (mp4a / 0x6134706D), 44100 Hz, stereo, fltp, 259 kb/s (default)
    Metadata:
      creation_time   : 2025-05-30T21:37:43.000000Z
      handler_name    : Core Media Audio
Input #1, png_pipe, from '/var/www/html/project/static/images/templates/logo.png':
  Duration: N/A, bitrate: N/A
    Stream #1:0: Video: png, 1 reference frame, rgba(pc), 1920x1080 [SAR 2835:2835 DAR 16:9], 25 tbr, 25 tbn, 25 tbc
[h264 @ 0x55d95a967580] Reinit context to 1280x720, pix_fmt: yuv420p
Input #2, mov,mp4,m4a,3gp,3g2,mj2, from '/var/www/html/project/static/images/templates/Codino.mp4':
  Metadata:
    major_brand     : mp42
    minor_version   : 1
    compatible_brands: isommp41mp42
    creation_time   : 2021-07-11T07:02:58.000000Z
  Duration: 00:00:02.00, start: 0.000000, bitrate: 1007 kb/s
    Stream #2:0(ita): Audio: aac (LC) (mp4a / 0x6134706D), 44100 Hz, stereo, fltp, 102 kb/s (default)
    Metadata:
      creation_time   : 2021-07-11T07:02:58.000000Z
      handler_name    : Core Media Audio
    Stream #2:1(und): Video: h264 (High), 1 reference frame (avc1 / 0x31637661), yuv420p(tv, bt709, progressive, left), 1280x720 [SAR 1:1 DAR 16:9], 813 kb/s, 25 fps, 25 tbr, 25k tbn, 50k tbc (default)
    Metadata:
      creation_time   : 2021-07-11T07:02:58.000000Z
      handler_name    : Core Media Video
[Parsed_scale_0 @ 0x55d95a9d7440] w:1280 h:720 flags:'bilinear' interl:0
[Parsed_scale_2 @ 0x55d95a96c980] w:1280 h:720 flags:'bilinear' interl:0
[Parsed_scale_4 @ 0x55d95a9b1300] w:1280 h:720 flags:'bilinear' interl:0
Stream mapping:
  Stream #0:0 (h264) -> scale
  Stream #0:1 (aac) -> concat:in0:a0
  Stream #1:0 (png) -> scale
  Stream #2:0 (aac) -> concat:in1:a0
  Stream #2:1 (h264) -> scale
  concat:out:v0 -> Stream #0:0 (libx264)
  concat:out:a0 -> Stream #0:1 (aac)
Press [q] to stop, [?] for help
[h264 @ 0x55d95a97a5c0] Reinit context to 1280x720, pix_fmt: yuv420p
[h264 @ 0x55d95add1a40] Reinit context to 1280x720, pix_fmt: yuv420p
[Parsed_scale_0 @ 0x55d95bcca900] w:1280 h:720 flags:'bilinear' interl:0
[Parsed_scale_2 @ 0x55d95bccafc0] w:1280 h:720 flags:'bilinear' interl:0
[Parsed_scale_4 @ 0x55d95bcd4100] w:1280 h:720 flags:'bilinear' interl:0
[graph 0 input from stream 0:0 @ 0x55d95bcd8900] w:1280 h:720 pixfmt:yuv420p tb:1/600 fr:30/1 sar:0/1 sws_param:flags=2
[graph 0 input from stream 1:0 @ 0x55d95bcd9940] w:1920 h:1080 pixfmt:rgba tb:1/25 fr:25/1 sar:2835/2835 sws_param:flags=2
[graph 0 input from stream 2:1 @ 0x55d95bcda9c0] w:1280 h:720 pixfmt:yuv420p tb:1/25000 fr:25/1 sar:1/1 sws_param:flags=2
[graph_0_in_0_1 @ 0x55d95bcdb980] tb:1/44100 samplefmt:fltp samplerate:44100 chlayout:0x3
[graph_0_in_2_0 @ 0x55d95bcdcac0] tb:1/44100 samplefmt:fltp samplerate:44100 chlayout:0x3
[Parsed_scale_0 @ 0x55d95bcca900] w:1280 h:720 fmt:yuv420p sar:0/1 -> w:1280 h:720 fmt:yuv420p sar:0/1 flags:0x2
[Parsed_setsar_1 @ 0x55d95bccad80] w:1280 h:720 sar:0/1 dar:16/9 -> sar:1/1 dar:16/9
[Parsed_scale_2 @ 0x55d95bccafc0] w:1920 h:1080 fmt:rgba sar:2835/2835 -> w:1280 h:720 fmt:yuva420p sar:1/1 flags:0x2
[Parsed_setsar_3 @ 0x55d95aa97280] w:1280 h:720 sar:1/1 dar:16/9 -> sar:1/1 dar:16/9
[Parsed_overlay_6 @ 0x55d95bcd5840] main w:1280 h:720 fmt:yuv420p overlay w:1280 h:720 fmt:yuva420p
[Parsed_overlay_6 @ 0x55d95bcd5840] [framesync @ 0x55d95bcd59a8] Selected 1/600 time base
[Parsed_overlay_6 @ 0x55d95bcd5840] [framesync @ 0x55d95bcd59a8] Sync level 2
[Parsed_scale_4 @ 0x55d95bcd4100] w:1280 h:720 fmt:yuv420p sar:1/1 -> w:1280 h:720 fmt:yuv420p sar:1/1 flags:0x2
[Parsed_setsar_5 @ 0x55d95bcd4bc0] w:1280 h:720 sar:1/1 dar:16/9 -> sar:1/1 dar:16/9
[libx264 @ 0x55d95a9a1e00] using SAR=1/1
[libx264 @ 0x55d95a9a1e00] using cpu capabilities: MMX2 SSE2Fast SSSE3 SSE4.2 AVX FMA3 BMI2 AVX2
[libx264 @ 0x55d95a9a1e00] profile High, level 3.1
[libx264 @ 0x55d95a9a1e00] 264 - core 155 r2917 0a84d98 - H.264/MPEG-4 AVC codec - Copyleft 2003-2018 - http://www.videolan.org/x264.html - options: cabac=1 ref=1 deblock=1:0:0 analyse=0x3:0x113 me=hex subme=2 psy=1 psy_rd=1.00:0.00 mixed_ref=0 me_range=16 chroma_me=1 trellis=0 8x8dct=1 cqm=0 deadzone=21,11 fast_pskip=1 chroma_qp_offset=0 threads=22 lookahead_threads=5 sliced_threads=0 nr=0 decimate=1 interlaced=0 bluray_compat=0 constrained_intra=0 bframes=3 b_pyramid=2 b_adapt=1 b_bias=0 direct=1 weightb=1 open_gop=0 weightp=1 keyint=250 keyint_min=25 scenecut=40 intra_refresh=0 rc_lookahead=10 rc=crf mbtree=1 crf=18.0 qcomp=0.60 qpmin=0 qpmax=69 qpstep=4 ip_ratio=1.40 aq=1:1.00
Output #0, mp4, to '/var/www/html/project/media/video/watermarks/Il_mio_filmato_7.mp4':
  Metadata:
    major_brand     : qt  
    minor_version   : 0
    compatible_brands: qt  
    com.apple.quicktime.is-montage: iMovie
    com.apple.quicktime.artwork: ˙Ř˙ŕ
    encoder         : Lavf58.29.100
    Stream #0:0: Video: h264 (libx264), 1 reference frame (avc1 / 0x31637661), yuv420p(progressive), 1280x720 [SAR 1:1 DAR 16:9], q=-1--1, 30 fps, 15360 tbn, 30 tbc (default)
    Metadata:
      encoder         : Lavc58.54.100 libx264
    Side data:
      cpb: bitrate max/min/avg: 0/0/0 buffer size: 0 vbv_delay: -1
    Stream #0:1: Audio: aac (LC) (mp4a / 0x6134706D), 44100 Hz, stereo, fltp, delay 1024, 128 kb/s (default)
    Metadata:
      encoder         : Lavc58.54.100 aac
[Parsed_overlay_6 @ 0x55d95bcd5840] [framesync @ 0x55d95bcd59a8] Sync level 0
[Parsed_concat_7 @ 0x55d95bcd6940] EOF on in0:v0, 1 streams left in segment.
[Parsed_concat_7 @ 0x55d95bcd6940] EOF on in0:a0, 0 streams left in segment.
[Parsed_concat_7 @ 0x55d95bcd6940] Segment finished at pts=37034376
[Parsed_concat_7 @ 0x55d95bcd6940] EOF on in1:a0, 1 streams left in segment.
[Parsed_concat_7 @ 0x55d95bcd6940] EOF on in1:v0, 0 streams left in segment.
[Parsed_concat_7 @ 0x55d95bcd6940] Segment finished at pts=39053061
No more output streams to write to, finishing.
frame= 1161 fps= 88 q=-1.0 Lsize=   18705kB time=00:00:39.05 bitrate=3923.5kbits/s speed=2.97x    
[AVIOContext @ 0x55d95a910ec0] Statistics: 0 seeks, 26 writeouts
video:18058kB audio:605kB subtitle:0kB other streams:0kB global headers:0kB muxing overhead: 0.227267%
Input file #0 (/var/www/html/project/media/video/original/Il_mio_filmato_7.mov):
  Input stream #0:0 (video): 1111 packets read (48762583 bytes); 1111 frames decoded; 
  Input stream #0:1 (audio): 1597 packets read (1202323 bytes); 1595 frames decoded (1633216 samples); 
  Total: 2708 packets (49964906 bytes) demuxed
Input file #1 (/var/www/html/project/static/images/templates/logo.png):
  Input stream #1:0 (video): 1 packets read (111578 bytes); 1 frames decoded; 
  Total: 1 packets (111578 bytes) demuxed
Input file #2 (/var/www/html/project/static/images/templates/Codino.mp4):
  Input stream #2:0 (audio): 89 packets read (26579 bytes); 87 frames decoded (89024 samples); 
  Input stream #2:1 (video): 50 packets read (203365 bytes); 50 frames decoded; 
  Total: 139 packets (229944 bytes) demuxed
Output file #0 (/var/www/html/project/media/video/watermarks/Il_mio_filmato_7.mp4):
  Output stream #0:0 (video): 1161 frames encoded; 1161 packets muxed (18491680 bytes); 
  Output stream #0:1 (audio): 1682 frames encoded (1722240 samples); 1683 packets muxed (619308 bytes); 
  Total: 2844 packets (19110988 bytes) muxed
[AVIOContext @ 0x55d95a9a1b00] Statistics: 2 seeks, 76 writeouts
[libx264 @ 0x55d95a9a1e00] frame I:7     Avg QP:13.46  size:108966
[libx264 @ 0x55d95a9a1e00] frame P:335   Avg QP:17.57  size: 35552
[libx264 @ 0x55d95a9a1e00] frame B:819   Avg QP:21.60  size:  7104
[libx264 @ 0x55d95a9a1e00] consecutive B-frames:  4.0%  5.0%  2.8% 88.2%
[libx264 @ 0x55d95a9a1e00] mb I  I16..4: 27.4% 15.2% 57.4%
[libx264 @ 0x55d95a9a1e00] mb P  I16..4:  5.0%  4.3%  3.9%  P16..4: 35.6% 14.2% 13.5%  0.0%  0.0%    skip:23.6%
[libx264 @ 0x55d95a9a1e00] mb B  I16..4:  0.5%  0.2%  0.0%  B16..8: 22.1%  7.0%  1.8%  direct:12.3%  skip:56.0%  L0:35.6% L1:37.0% BI:27.3%
[libx264 @ 0x55d95a9a1e00] 8x8 transform intra:29.2% inter:21.4%
[libx264 @ 0x55d95a9a1e00] coded y,uvDC,uvAC intra: 49.2% 63.6% 21.2% inter: 17.4% 15.3% 1.3%
[libx264 @ 0x55d95a9a1e00] i16 v,h,dc,p: 42% 41% 10%  7%
[libx264 @ 0x55d95a9a1e00] i8 v,h,dc,ddl,ddr,vr,hd,vl,hu: 16% 53% 21%  1%  1%  1%  3%  1%  3%
[libx264 @ 0x55d95a9a1e00] i4 v,h,dc,ddl,ddr,vr,hd,vl,hu: 16% 41% 11%  4%  5%  4%  8%  3%  8%
[libx264 @ 0x55d95a9a1e00] i8c dc,h,v,p: 45% 33% 17%  5%
[libx264 @ 0x55d95a9a1e00] Weighted P-Frames: Y:4.2% UV:0.0%
[libx264 @ 0x55d95a9a1e00] kb/s:3789.78
[aac @ 0x55d95a9e53c0] Qavg: 1300.259
[AVIOContext @ 0x55d95a919e40] Statistics: 95580608 bytes read, 2193 seeks
[AVIOContext @ 0x55d95a915880] Statistics: 111578 bytes read, 0 seeks
[AVIOContext @ 0x55d95a9174c0] Statistics: 1530915 bytes read, 42 seeks
